<?xml version="1.0" encoding="UTF-8"?><svg id="Layer_3" xmlns="http://www.w3.org/2000/svg" viewBox="0 0 1000 1000"><path d="m429.98,998.2c-5.34,0-11.29-2.3-15.9-8.75-1.12-1.56-2.29-3.53-3.71-6.2-2.16-4.09-5.04-10.11-9.06-18.96-34.43-75.85-63.04-160.51-85.24-252.12C47.83,877.41,36.15,891.65,36.15,938.24c0,9.98-8.09,18.07-18.07,18.07s-18.07-8.09-18.07-18.07c0-39.25,9.79-64.22,67.79-108.38,43.3-32.97,117.43-79.74,239.71-154.9-1.06-4.83-2.1-9.69-3.13-14.56-20.4,1.55-39.58,6.96-56.54,13.86l-72.5,44.91c-7.91,4.9-18.25,2.99-23.89-4.41-5.64-7.4-4.74-17.88,2.09-24.21,1.08-1,26.96-24.78,66.8-43.67,3.68-1.74,7.36-3.39,11.04-4.94l61.98-38.39c-11.34-63.65-19.82-129.77-25.28-197.4-.18-2.21-.35-4.41-.52-6.59-4.54,18.29-9.35,36.53-14.32,55-14.84,55.15-25.84,148.13-25.95,149.06-1.07,9.11-8.79,15.97-17.95,15.97h-.08c-9.2-.04-16.9-6.97-17.89-16.12l-20.92-192.01c-2.65,29.02-5.85,60.43-9.71,93.92-11.1,96.25-29.16,169.23-53.69,216.91-19.23,37.39-36.41,46.93-41.22,48.96l-14.08-33.29s-.36.1-.99.47c.5-.29,50.3-31.08,74.07-237.19,21.23-184.12,22.21-304.49,22.22-305.68.06-9.58,7.58-17.45,17.15-17.94,9.55-.48,17.85,6.57,18.89,16.09l29.82,273.71c1.73-7.79,3.55-15.28,5.42-22.26,18.51-68.83,34.78-134.36,42.71-211.03,0-10.07.09-19.28.23-27.54.45-27.63,1.44-47.03,2.2-58.43,1.58-23.87,2.47-27.88,7.31-32.94,5.1-5.33,13.02-7.06,19.87-4.31,11.68,4.69,11.68,16.34,11.68,21.31,0,37.46-1.87,71.89-5.17,104.32,0,47.08,1.85,108.12,8,179.11,4.24,48.96,10.92,105.96,21.41,167.32l25.28-15.66c-.75-29.09-1.06-60.95-1.06-97.1,0-58.02,3.05-131.54,8.38-201.72,2.17-28.59,4.6-54.7,6.84-73.53,1.12-9.43,2.17-16.88,3.13-22.13.58-3.21,1.13-5.61,1.72-7.57,4.23-14.1,16.03-14.81,18.35-14.81,7.31,0,15.78,4.68,18.22,15.12.4,1.71.68,3.7.88,6.25.3,3.81.45,9.15.45,16.32,0,129.08,13.29,227.75,43.6,316.92l86.47-53.56c-.09-2.53-.18-5.05-.27-7.55-1.57-44.07-2.93-82.13-2.93-103.34,0-85.87-5.91-149.74-12.42-194.03-9.06-24.05-17.64-50.68-27.31-80.7-2.09-6.5-4.24-13.17-6.47-20.03-5.6-17.27-7.36-30.54,2.24-39.17,5.7-5.12,13.65-6.34,20.76-3.18,5.81,2.59,12.38,8.06,21.12,30.44,6.13,15.69,12.05,36.62,17.11,60.52,2.53,11.96,5.2,26.28,7.74,43.11,31.91,83.44,68.47,126.6,188.54,183.32,54.19-33.22,102.59-62.11,113.83-68.8,8.52-5.08,19.54-2.34,24.69,6.14,5.15,8.48,2.5,19.52-5.93,24.75l-89.53,55.45c43.06,13.25,80.32,10.94,109.72,3.98,12.73-5.58,24.89-10.82,36.03-15.53,11.64-4.91,21.51-8.96,28.56-11.7,12.01-4.67,18.63-7.24,26.77-2.46,5.77,3.39,9.22,9.74,8.93,16.42-.47,10.79-8.98,15.25-14.06,17.92-3.27,1.72-8.12,4.1-14.41,7.1-12.48,5.94-33.02,15.72-59.91,22.48-76.08,33.51-191.38,87.43-254.94,126.55-27.4,16.86-53.54,32.93-78.54,48.28.33,13.69.58,26.85.72,39.07.26,24,.05,41.97-.65,54.94-.9,16.6-1.82,33.77-16.68,38.54-6.44,2.07-16.25,1.05-22.67-8.64-12.46-18.82-11.8-65.69-10.12-93.6-12.11,7.42-23.94,14.67-35.5,21.75,20.72,45.31,39.38,83.82,54.9,113.39,24.15,15.26,45.92,31.07,64.31,46.89,41.89,36.03,42.85,54.34,39.92,64.97-2.52,9.17-9.87,15.67-19.67,17.39-22.7,3.98-57.73-19.35-83.29-55.49-8.29-11.72-18.17-28.66-28.7-48.3-37.65-23.07-81.05-44.71-126.25-62.77,4.65,48.44,11.85,94.81,22.67,151.74,8.01,42.14,16.59,78.39,22.86,104.85,2.95,12.44,5.27,22.27,6.73,29.33.86,4.17,1.38,7.21,1.65,9.56,1.77,15.96-9.01,20.94-12.36,22.08-1.82.62-3.86.99-6,.99Zm-81.4-306.03c6.46,27.53,13.74,55.46,21.94,83.54-5.05-31.13-8.91-60.11-11.82-89.76-3.43,2.1-6.77,4.16-10.13,6.22Zm68.82-42.2c25.43,10.5,50.27,22.08,73.86,34.38-10.13-20.88-20.08-42.14-29.1-61.79-8.19,5.01-16.24,9.94-24.16,14.79-6.99,4.28-13.85,8.48-20.6,12.61Zm-83.26-25.25c6.78.67,13.48,1.71,20.1,3.14-.35-6.2-.67-12.51-.97-18.92l-19.81,12.27c.22,1.17.45,2.34.68,3.51Zm54.44-37.65c.45,12.85,1.01,25.16,1.68,37.13,9.4-5.75,19.02-11.64,28.87-17.67,9.15-5.6,18.48-11.31,27.99-17.14-1.5-3.35-2.95-6.59-4.34-9.7-3.06-6.87-6.01-13.77-8.85-20.71l-45.35,28.09Zm76.52-47.4c3.4,8.49,6.96,16.92,10.7,25.3.8,1.8,1.6,3.6,2.4,5.38,17.82-10.92,36.27-22.22,55.41-33.96,1.7-10.75,3.95-22.41,6.92-34.05-.1-3.07-.2-6.14-.3-9.2l-75.12,46.53Zm-76.91-142.24c-.81,24.37-1.3,48.97-1.3,72.79,0,27.26.18,52.04.59,75l33.36-20.66c-13.64-38.78-24.1-79.02-31.72-121.74-.32-1.79-.63-3.59-.94-5.38Zm188.64,109.09c.04,1.1.07,2.19.1,3.28,19.56-12.01,39.8-24.46,60.78-37.37,48.94-30.12,123.07-66.3,176.56-91.3-19.87-3.15-41.03-9.01-63.23-18.57l-119.05,73.74c-17.3,11.6-29.45,20.36-33.9,24.82-8.04,8.03-15.41,24.1-21.25,45.4Zm-8.33-271.7c1.99,31,3.22,66.18,3.22,105.81,0,18.48,1.09,50.86,2.44,88.97l41.13-25.48c26.05-17.43,60.39-39.17,95.18-60.75-67.95-34.1-109.61-65.81-139.63-105.41-.79-1.04-1.57-2.09-2.34-3.14Zm-302.39-104.58h0s0,0,0,0Z" fill="#49526e" stroke="#1c3458" stroke-miterlimit="10" stroke-width="16"/></svg>